<svg fill="#ffffff" viewBox="0 0 32 32" id="icon" xmlns="http://www.w3.org/2000/svg" stroke="#ffffff"><g id="SVGRepo_bgCarrier" stroke-width="0"></g><g id="SVGRepo_tracerCarrier" stroke-linecap="round" stroke-linejoin="round"></g><g id="SVGRepo_iconCarrier"> <defs> <style> .cls-1 { fill: none; } </style> </defs> <circle cx="26" cy="26" r="4"></circle> <rect x="9.9999" y="13" width="2" height="2"></rect> <rect x="9.9999" y="18" width="2" height="2"></rect> <rect x="9.9999" y="23" width="2" height="2"></rect> <rect x="13.9999" y="13" width="8" height="2"></rect> <rect x="13.9999" y="18" width="8" height="2"></rect> <rect x="13.9999" y="23" width="4.0001" height="2"></rect> <path d="M7,28V7h3v3H22V7h3V18h2V7a2,2,0,0,0-2-2H22V4a2,2,0,0,0-2-2H12a2,2,0,0,0-2,2V5H7A2,2,0,0,0,5,7V28a2,2,0,0,0,2,2H18V28ZM12,4h8V8H12Z" transform="translate(0 0)"></path> <rect id="_Transparent_Rectangle_" data-name="&lt;Transparent Rectangle&gt;" class="cls-1" width="32" height="32"></rect> </g></svg>