<svg width="18" height="20" viewBox="0 0 18 20" fill="none" xmlns="http://www.w3.org/2000/svg">
<path d="M9.00008 11.8332C10.0126 11.8332 10.8334 11.0124 10.8334 9.99984C10.8334 8.98732 10.0126 8.1665 9.00008 8.1665C7.98756 8.1665 7.16675 8.98732 7.16675 9.99984C7.16675 11.0124 7.98756 11.8332 9.00008 11.8332Z" stroke="white" stroke-width="1.83333"/>
<path d="M2.94913 4.38995L3.40746 3.5952C3.22752 3.49116 3.01755 3.45136 2.81202 3.48234C2.60648 3.51332 2.41758 3.61324 2.2763 3.7657L2.94913 4.38995ZM1.11671 7.56528L0.240379 7.29486C0.179384 7.49325 0.187517 7.70646 0.263449 7.89962C0.339381 8.09278 0.478617 8.25445 0.658379 8.3582L1.11671 7.56528ZM1.11488 12.4337L0.656545 11.6399C0.476562 11.7438 0.337252 11.9059 0.261468 12.0994C0.185683 12.2929 0.177924 12.5065 0.239462 12.705L1.11488 12.4337ZM2.94821 15.609L2.27538 16.2324C2.41666 16.3848 2.60557 16.4847 2.8111 16.5157C3.01664 16.5467 3.2266 16.5069 3.40655 16.4029L2.94821 15.609ZM7.16488 18.0428H6.25005C6.25006 18.2505 6.32063 18.4521 6.4502 18.6145C6.57977 18.7769 6.76066 18.8904 6.96321 18.9365L7.16488 18.0428ZM10.8325 18.0446L11.0369 18.9384C11.2393 18.8921 11.4199 18.7784 11.5493 18.6161C11.6787 18.4537 11.7492 18.2522 11.7491 18.0446H10.8325ZM15.05 15.6099L14.5917 16.4038C14.7716 16.5076 14.9813 16.5472 15.1867 16.5163C15.392 16.4853 15.5807 16.3855 15.722 16.2333L15.05 15.6099ZM16.8815 12.4328L17.7579 12.7032C17.8189 12.5048 17.8107 12.2916 17.7348 12.0984C17.6589 11.9053 17.5196 11.7436 17.3399 11.6399L16.8815 12.4328ZM16.8834 7.56436L17.3417 8.3582C17.5217 8.25424 17.661 8.0922 17.7368 7.89865C17.8126 7.70511 17.8203 7.49156 17.7588 7.29303L16.8834 7.56436ZM15.05 4.38811L15.7229 3.7657C15.5817 3.61309 15.3929 3.513 15.1873 3.48186C14.9818 3.45071 14.7718 3.49035 14.5917 3.59428L15.05 4.38811ZM10.8334 1.9562H11.75C11.7501 1.74858 11.6796 1.5471 11.5503 1.38474C11.4209 1.22237 11.2402 1.10874 11.0378 1.06245L10.8334 1.9562ZM7.16671 1.95436L6.9623 1.06061C6.75991 1.10691 6.57923 1.22054 6.44984 1.3829C6.32045 1.54527 6.25001 1.74675 6.25005 1.95436H7.16671ZM1.99305 7.8357C2.31678 6.78426 2.87322 5.81926 3.62105 5.01236L2.2763 3.7657C1.34158 4.77436 0.646038 5.98152 0.241295 7.29578L1.99305 7.8357ZM2.64938 13.6666C2.37464 13.1916 2.15388 12.6874 1.99121 12.1633L0.240379 12.7059C0.439295 13.3485 0.712462 13.9783 1.06171 14.5833L2.64938 13.6666ZM3.62105 14.9875C3.24928 14.5847 2.92277 14.1417 2.64938 13.6666L1.06171 14.5833C1.41005 15.1883 1.8198 15.7392 2.2763 16.2333L3.62105 14.9875ZM10.6299 17.1518C9.55698 17.396 8.44284 17.3954 7.37021 17.1499L6.9623 18.9374C8.30341 19.2442 9.69641 19.2448 11.0378 18.9393L10.6299 17.1518ZM16.007 12.1642C15.6833 13.2156 15.1269 14.1806 14.379 14.9875L15.7238 16.2342C16.6585 15.2255 17.3541 14.0193 17.7588 12.705L16.007 12.1642ZM15.3507 6.33328C15.6312 6.81911 15.8503 7.32328 16.0089 7.83661L17.7597 7.29395C17.5572 6.63936 17.2817 6.00962 16.9384 5.41661L15.3507 6.33328ZM14.379 5.01236C14.743 5.40653 15.0702 5.84653 15.3507 6.33328L16.9384 5.41661C16.5963 4.82307 16.1889 4.26963 15.7238 3.76661L14.379 5.01236ZM7.37021 2.84811C8.44311 2.60386 9.55726 2.60448 10.6299 2.84995L11.0378 1.06245C9.69697 0.755847 8.30339 0.75522 6.9623 1.06061L7.37021 2.84811ZM8.08338 3.64928V1.95345H6.25005V3.64928H8.08338ZM4.87505 4.44311L3.40746 3.5952L2.4908 5.18286L3.95838 6.03078L4.87505 4.44311ZM2.12505 10.7938L0.657462 11.6408L1.57413 13.2284L3.04171 12.3814L2.12505 10.7938ZM3.04171 7.61845L1.57505 6.77236L0.658379 8.36003L2.12505 9.20611L3.04171 7.61845ZM8.08338 18.0437V16.3506H6.25005V18.0428L8.08338 18.0437ZM3.95838 13.9691L2.4908 14.817L3.40746 16.4047L4.87413 15.5568L3.95838 13.9691ZM15.5093 14.817L14.0417 13.9691L13.125 15.5568L14.5926 16.4047L15.5093 14.817ZM11.75 18.0455V16.3506H9.91671V18.0464L11.75 18.0455ZM16.426 6.77053L14.9584 7.61845L15.875 9.20611L17.3417 8.3582L16.426 6.77053ZM17.3408 11.6399L15.875 10.7938L14.9584 12.3814L16.425 13.2275L17.3408 11.6399ZM11.75 3.64928V1.9562H9.91671V3.64928H11.75ZM14.5926 3.5952L13.125 4.44311L14.0417 6.03078L15.5093 5.18286L14.5926 3.5952ZM9.91671 3.64928C9.91671 5.76678 12.2084 7.08953 14.0417 6.03078L13.125 4.44311C12.9857 4.52357 12.8276 4.56592 12.6667 4.56592C12.5058 4.56592 12.3477 4.52357 12.2084 4.44312C12.069 4.36267 11.9533 4.24695 11.8729 4.1076C11.7924 3.96826 11.7501 3.81019 11.75 3.64928H9.91671ZM14.9584 7.61845C13.125 8.6772 13.125 11.3227 14.9584 12.3814L15.875 10.7938C15.7357 10.7133 15.62 10.5976 15.5396 10.4583C15.4591 10.3189 15.4168 10.1608 15.4168 9.99995C15.4168 9.83904 15.4591 9.68098 15.5396 9.54163C15.62 9.40229 15.7357 9.28657 15.875 9.20611L14.9584 7.61845ZM14.0417 13.9691C12.2084 12.9113 9.91671 14.234 9.91671 16.3506H11.75C11.7501 16.1897 11.7924 16.0316 11.8729 15.8923C11.9533 15.7529 12.069 15.6372 12.2084 15.5568C12.3477 15.4763 12.5058 15.434 12.6667 15.434C12.8276 15.434 12.9857 15.4763 13.125 15.5568L14.0417 13.9691ZM8.08338 16.3506C8.08338 14.2331 5.79171 12.9104 3.95838 13.9691L4.87413 15.5568C5.01348 15.4763 5.17247 15.434 5.33337 15.434C5.49428 15.434 5.65235 15.4763 5.7917 15.5568C5.93105 15.6372 6.04677 15.7529 6.12723 15.8923C6.20768 16.0316 6.25004 16.1897 6.25005 16.3506H8.08338ZM3.04171 12.3814C4.87505 11.3227 4.87505 8.6772 3.04171 7.61845L2.12505 9.20611C2.26439 9.28657 2.38009 9.40229 2.46054 9.54163C2.54099 9.68098 2.58334 9.83904 2.58334 9.99995C2.58334 10.1608 2.54099 10.3189 2.46054 10.4583C2.38009 10.5976 2.26439 10.7133 2.12505 10.7938L3.04171 12.3814ZM6.25005 3.64928C6.25004 3.81019 6.20768 3.96826 6.12723 4.1076C6.04677 4.24695 5.93105 4.36267 5.7917 4.44312C5.65235 4.52357 5.49428 4.56592 5.33337 4.56592C5.17247 4.56592 5.01439 4.52357 4.87505 4.44311L3.95838 6.03078C5.79171 7.08861 8.08338 5.76586 8.08338 3.64928H6.25005Z" fill="white"/>
</svg>